<svg xmlns="http://www.w3.org/2000/svg" version="1.1" viewBox="0 0 251.104 24.274" enable-background="new 0 0 251.104 24.274" xml:space="preserve"><g><path fill="#FFFFFF" d="M42.699 23.904c-2.797 0-5.505-0.43-7.742-2.279 -2.623-2.152-3.398-5.462-3.398-9.162 0-3.871 1.334-7.569 4.817-9.548 2.581-1.507 5.463-1.935 8.818-1.935 2.236 0 4.387 0.214 6.71 0.428v2.366c-2.236-0.215-4.388-0.429-6.839-0.429 -3.182 0-5.592 0.472-7.355 1.592 -2.323 1.419-3.441 3.913-3.441 7.569 0 3.484 0.903 5.893 2.753 7.356 1.463 1.117 3.527 1.677 6.237 1.677 2.622 0 6.107-0.645 9.117-1.248v2.279C49.28 23.216 45.537 23.904 42.699 23.904"/><path fill="#FFFFFF" d="M79.703 21.581c-2.58 1.806-5.978 2.323-9.893 2.323 -4 0-7.398-0.56-9.936-2.323 -2.796-1.935-3.914-5.119-3.914-9.118 0-3.958 1.118-7.183 3.914-9.162 2.538-1.764 5.936-2.322 9.936-2.322 3.957 0 7.313 0.558 9.893 2.322 2.839 1.979 3.915 5.204 3.915 9.118C83.618 16.421 82.5 19.646 79.703 21.581M77.81 5.195c-1.805-1.291-4.473-1.893-8-1.893 -3.785 0-6.581 0.559-8.387 1.936 -1.893 1.419-2.752 3.699-2.752 7.054 0 3.353 0.903 5.763 2.923 7.269 1.807 1.377 4.517 2.021 8.216 2.021 3.785 0 6.581-0.558 8.387-1.935 1.85-1.418 2.71-3.656 2.71-7.011C80.907 9.151 79.962 6.699 77.81 5.195"/><path fill="#FFFFFF" d="M142.146 21.581c-2.581 1.806-5.977 2.323-9.893 2.323 -3.999 0-7.398-0.56-9.936-2.323 -2.794-1.935-3.913-5.119-3.913-9.118 0-3.958 1.119-7.183 3.913-9.162 2.538-1.764 5.937-2.322 9.936-2.322 3.958 0 7.313 0.558 9.893 2.322 2.839 1.979 3.914 5.204 3.914 9.118C146.059 16.421 144.942 19.646 142.146 21.581M140.253 5.195c-1.806-1.291-4.474-1.893-8.001-1.893 -3.784 0-6.58 0.559-8.386 1.936 -1.893 1.419-2.753 3.699-2.753 7.054 0 3.353 0.903 5.763 2.923 7.269 1.809 1.377 4.518 2.021 8.216 2.021 3.787 0 6.581-0.558 8.388-1.935 1.85-1.418 2.71-3.656 2.71-7.011C143.35 9.151 142.404 6.699 140.253 5.195"/><path fill="#FFFFFF" d="M162.159 23.904c-2.797 0-5.505-0.43-7.742-2.279 -2.624-2.152-3.398-5.462-3.398-9.162 0-3.871 1.335-7.569 4.818-9.548 2.58-1.507 5.462-1.935 8.817-1.935 2.236 0 4.388 0.214 6.71 0.428v2.366c-2.236-0.215-4.388-0.429-6.838-0.429 -3.184 0-5.593 0.472-7.355 1.592 -2.323 1.419-3.442 3.913-3.442 7.569 0 3.484 0.903 5.893 2.754 7.356 1.463 1.117 3.526 1.677 6.236 1.677 2.623 0 6.107-0.645 9.117-1.248v2.279C168.739 23.216 164.998 23.904 162.159 23.904"/><path fill="#FFFFFF" d="M199.163 21.581c-2.58 1.806-5.977 2.323-9.892 2.323 -4 0-7.398-0.56-9.936-2.323 -2.794-1.935-3.913-5.119-3.913-9.118 0-3.958 1.119-7.183 3.913-9.162 2.538-1.764 5.936-2.322 9.936-2.322 3.958 0 7.313 0.558 9.892 2.322 2.84 1.979 3.915 5.204 3.915 9.118C203.078 16.421 201.96 19.646 199.163 21.581M197.271 5.195c-1.806-1.291-4.472-1.893-8-1.893 -3.784 0-6.581 0.559-8.387 1.936 -1.892 1.419-2.753 3.699-2.753 7.054 0 3.353 0.904 5.763 2.924 7.269 1.808 1.377 4.517 2.021 8.216 2.021 3.787 0 6.581-0.558 8.387-1.935 1.85-1.418 2.711-3.656 2.711-7.011C200.369 9.151 199.423 6.699 197.271 5.195"/><path fill="#FFFFFF" d="M229.486 23.302V9.71c0-2.322-0.644-3.87-1.806-4.86 -1.248-1.075-3.592-1.543-5.757-1.461 -4.005 0.148-10.454 1.719-10.454 1.719v18.194h-2.537V1.58h2.064l0.215 1.291c0 0 6.942-1.797 10.841-1.891 2.79-0.068 5.757 0.473 7.692 2.191 1.936 1.723 2.281 3.787 2.281 6.539v13.592H229.486z"/><path fill="#FFFFFF" d="M248.568 23.302V9.71c0-2.322-0.645-3.87-1.722-4.86 -1.203-1.075-2.967-1.461-5.033-1.461 -2.766 0-5.867 0.553-9.471 1.375 -0.768 0.175-1.56 0.364-2.376 0.558 0.517 1.291-1.892-2.538-1.376-2.063 0.85-0.203 1.693-0.404 2.525-0.596 4.093-0.941 7.912-1.683 10.915-1.683 2.666 0 5.075 0.473 6.926 2.191 1.806 1.723 2.149 3.787 2.149 6.539v13.592H248.568z"/><path fill="#FFFFFF" d="M109.989 23.302V9.71c0-2.323-0.645-3.87-1.806-4.861 -1.248-1.074-3.096-1.461-5.29-1.461 -3.742 0-7.007 0.817-10.922 1.72v18.194h-2.537V1.58h2.064l0.215 1.291c3.57-0.818 7.566-1.892 11.309-1.892 2.752 0 5.29 0.474 7.225 2.192 1.936 1.723 2.28 3.787 2.28 6.539v13.592H109.989z"/><path fill="#FFFFFF" d="M5.919 4.25c1.682-1.244 4.186-1.874 7.443-1.874 3.277 0 5.692 0.524 7.383 1.602 1.952 1.253 2.929 3.303 3.076 6.451l0.001 0.019H2.887l0.002-0.023C3.139 7.587 4.13 5.567 5.919 4.25M26.618 12.784c-0.004-4.104-0.488-8.222-3.972-10.552C19.715 0.254 16.145 0 13.362 0 9.514 0 6.549 0.76 4.295 2.323 1.565 4.313 0 7.898 0 12.16c0 4.346 1.181 7.474 3.611 9.566 2.162 1.81 4.961 2.548 9.66 2.548 4.281 0 9.028-0.845 12.169-1.405l0.033-0.005v-2.375l-0.047 0.008c-3.394 0.584-7.617 1.311-11.927 1.311 -3.627 0-6.226-0.643-7.946-1.966 -1.85-1.452-2.7-3.609-2.757-6.996v-0.022h23.821V12.784z"/></g></svg>